<?xml version="1.0" encoding="UTF-8"?>
<svg xmlns="http://www.w3.org/2000/svg" xmlns:xlink="http://www.w3.org/1999/xlink" width="250pt" height="52pt" viewBox="0 0 250 52" version="1.1">
<g id="surface53">
<path style="fill:none;stroke-width:1;stroke-linecap:butt;stroke-linejoin:miter;stroke:rgb(0%,0%,0%);stroke-opacity:1;stroke-miterlimit:10;" d="M 27.4375 33.5 L 27.4375 50 L 22.953125 50 L 22.953125 33.640625 C 22.953125 31.058594 22.445312 29.125 21.4375 27.84375 C 20.425781 26.554688 18.910156 25.90625 16.890625 25.90625 C 14.460938 25.90625 12.550781 26.683594 11.15625 28.234375 C 9.757812 29.777344 9.0625 31.882812 9.0625 34.546875 L 9.0625 50 L 4.546875 50 L 4.546875 12.015625 L 9.0625 12.015625 L 9.0625 26.90625 C 10.132812 25.261719 11.398438 24.03125 12.859375 23.21875 C 14.316406 22.40625 15.992188 22 17.890625 22 C 21.035156 22 23.410156 22.976562 25.015625 24.921875 C 26.628906 26.859375 27.4375 29.71875 27.4375 33.5 Z M 48.828125 36.25 C 45.191406 36.25 42.675781 36.667969 41.28125 37.5 C 39.882812 38.335938 39.1875 39.75 39.1875 41.75 C 39.1875 43.34375 39.707031 44.609375 40.75 45.546875 C 41.800781 46.484375 43.234375 46.953125 45.046875 46.953125 C 47.535156 46.953125 49.53125 46.074219 51.03125 44.3125 C 52.539062 42.542969 53.296875 40.1875 53.296875 37.25 L 53.296875 36.25 Z M 57.78125 34.40625 L 57.78125 50 L 53.296875 50 L 53.296875 45.84375 C 52.265625 47.511719 50.984375 48.742188 49.453125 49.53125 C 47.929688 50.3125 46.0625 50.703125 43.84375 50.703125 C 41.039062 50.703125 38.8125 49.921875 37.15625 48.359375 C 35.507812 46.789062 34.6875 44.683594 34.6875 42.046875 C 34.6875 38.964844 35.71875 36.640625 37.78125 35.078125 C 39.84375 33.515625 42.914062 32.734375 47 32.734375 L 53.296875 32.734375 L 53.296875 32.296875 C 53.296875 30.234375 52.613281 28.640625 51.25 27.515625 C 49.894531 26.382812 47.988281 25.8125 45.53125 25.8125 C 43.96875 25.8125 42.445312 26 40.96875 26.375 C 39.488281 26.742188 38.0625 27.296875 36.6875 28.046875 L 36.6875 23.90625 C 38.332031 23.273438 39.925781 22.796875 41.46875 22.484375 C 43.019531 22.164062 44.53125 22 46 22 C 49.945312 22 52.894531 23.027344 54.84375 25.078125 C 56.800781 27.132812 57.78125 30.242188 57.78125 34.40625 Z M 67.046875 12.015625 L 71.53125 12.015625 L 71.53125 50 L 67.046875 50 Z M 80.9375 12.015625 L 85.421875 12.015625 L 85.421875 50 L 80.9375 50 Z M 105.425781 25.8125 C 103.007812 25.8125 101.101562 26.75 99.707031 28.625 C 98.308594 30.5 97.613281 33.078125 97.613281 36.359375 C 97.613281 39.632812 98.304688 42.210938 99.691406 44.09375 C 101.085938 45.96875 102.996094 46.90625 105.425781 46.90625 C 107.808594 46.90625 109.699219 45.964844 111.097656 44.078125 C 112.503906 42.183594 113.207031 39.609375 113.207031 36.359375 C 113.207031 33.121094 112.503906 30.554688 111.097656 28.65625 C 109.699219 26.761719 107.808594 25.8125 105.425781 25.8125 Z M 105.425781 22 C 109.332031 22 112.398438 23.273438 114.628906 25.8125 C 116.855469 28.34375 117.972656 31.859375 117.972656 36.359375 C 117.972656 40.828125 116.855469 44.339844 114.628906 46.890625 C 112.398438 49.433594 109.332031 50.703125 105.425781 50.703125 C 101.496094 50.703125 98.425781 49.433594 96.207031 46.890625 C 93.988281 44.339844 92.878906 40.828125 92.878906 36.359375 C 92.878906 31.859375 93.988281 28.34375 96.207031 25.8125 C 98.425781 23.273438 101.496094 22 105.425781 22 Z M 120.703125 50 "/>
</g>
</svg>
