<?xml version="1.0" encoding="UTF-8"?>
<svg width="700pt" height="700pt" version="1.1" viewBox="0 0 700 700" xmlns="http://www.w3.org/2000/svg" xmlns:xlink="http://www.w3.org/1999/xlink">
 <defs>
  <symbol id="x" overflow="visible">
   <path d="m0.03125 0h-0.03125v-0.015625-0.015625c0.0078125-0.0078125 0.019531-0.015625 0.03125-0.015625v0.015625h-0.015625v0.015625 0.015625h0.015625v-0.015625z"/>
  </symbol>
  <symbol id="c" overflow="visible">
   <path d="m0.03125-0.015625c0-0.0078125-0.0078125-0.015625-0.015625-0.015625v0.015625 0.015625h-0.015625v-0.03125h0.015625 0.015625z"/>
  </symbol>
  <symbol id="a" overflow="visible">
   <path d="m0.03125-0.015625h-0.015625v0.015625h0.015625v-0.015625 0.015625h-0.015625-0.015625v-0.015625l0.015625-0.015625c0.0078125 0 0.015625 0.0078125 0.015625 0.015625zm0 0h-0.015625v-0.015625 0.015625z"/>
  </symbol>
  <symbol id="b" overflow="visible">
   <path d="m0.015625-0.015625v0.015625l0.015625-0.015625zm0.015625 0v0.015625h-0.015625-0.015625v-0.015625h0.015625 0.015625-0.015625v-0.015625h-0.015625v0.015625-0.015625h0.015625 0.015625v0.015625z"/>
  </symbol>
  <symbol id="e" overflow="visible">
   <path d="m0.015625-0.046875v0.015625h0.015625-0.015625v0.015625 0.015625h0.015625-0.015625-0.015625v-0.015625-0.03125z"/>
  </symbol>
  <symbol id="i" overflow="visible">
   <path d="m0.03125-0.03125v-0.015625 0.046875h-0.015625-0.015625v-0.015625l0.015625-0.015625h0.015625zm-0.015625 0.03125 0.015625-0.015625h-0.015625v-0.015625 0.015625 0.015625z"/>
  </symbol>
  <symbol id="m" overflow="visible">
   <path d="m0.015625 0h0.015625v-0.015625c0-0.0078125-0.0078125-0.015625-0.015625-0.015625v0.015625 0.015625zm0-0.03125h0.015625v0.015625 0.015625h-0.015625-0.015625v-0.046875h0.015625z"/>
  </symbol>
  <symbol id="h" overflow="visible">
   <path d="m0-0.03125h0.015625v0.015625l0.015625-0.015625-0.015625 0.03125v0.015625h-0.015625v-0.015625h0.015625z"/>
  </symbol>
  <symbol id="l" overflow="visible">
   <path d="m0.03125-0.03125h-0.015625v0.015625 0.015625h0.015625v-0.015625-0.015625zm0-0.015625v0.015625c0.0078125 0 0.015625 0.0078125 0.015625 0.015625l-0.015625 0.015625h-0.03125v-0.015625-0.015625c0.0078125-0.0078125 0.019531-0.015625 0.03125-0.015625z"/>
  </symbol>
  <symbol id="w" overflow="visible">
   <path d="m0-0.046875h0.015625v0.046875h-0.015625z"/>
  </symbol>
  <symbol id="k" overflow="visible">
   <path d="m0-0.046875h0.015625v0.03125l0.015625-0.015625-0.015625 0.015625 0.015625 0.015625-0.015625-0.015625v0.015625h-0.015625z"/>
  </symbol>
  <symbol id="g" overflow="visible">
   <path d="m0.03125-0.03125v0.015625c0-0.0078125-0.0078125-0.015625-0.015625-0.015625v0.015625h0.015625v0.015625h-0.015625-0.015625v-0.015625 0.015625h0.015625v-0.015625h-0.015625v-0.015625h0.015625 0.015625z"/>
  </symbol>
  <symbol id="f" overflow="visible">
   <path d="m0.03125-0.015625v0.015625-0.015625h-0.015625v-0.015625 0.015625 0.015625h-0.015625v-0.03125h0.015625 0.015625v0.015625z"/>
  </symbol>
  <symbol id="j" overflow="visible">
   <path d="m0-0.046875h0.015625c0.0078125 0 0.015625 0.0078125 0.015625 0.015625v0.015625h-0.015625v0.015625h-0.015625zm0.015625 0.015625v0.015625h0.015625v-0.015625h-0.015625z"/>
  </symbol>
  <symbol id="d" overflow="visible">
   <path d="m0.015625-0.03125v0.015625 0.015625l0.015625-0.015625h-0.015625v-0.015625zm0 0c0.0078125 0 0.015625 0.0078125 0.015625 0.015625v0.015625h-0.015625-0.015625v-0.015625l0.015625-0.015625z"/>
  </symbol>
  <symbol id="v" overflow="visible">
   <path d="m0-0.03125h0.015625v0.015625l0.015625-0.015625v0.03125h-0.015625z"/>
  </symbol>
  <symbol id="u" overflow="visible">
   <path d="m0-0.03125h0.015625v0.03125h-0.015625zm0-0.015625h0.015625v0.015625h-0.015625z"/>
  </symbol>
  <symbol id="t" overflow="visible">
   <path d="m0.03125-0.046875v0.015625h-0.015625 0.015625-0.015625v0.03125h-0.015625v-0.03125l0.015625-0.015625z"/>
  </symbol>
  <symbol id="s" overflow="visible">
   <path d="m0.03125-0.03125h0.015625v0.015625 0.015625-0.015625-0.015625c-0.011719 0-0.015625 0.0078125-0.015625 0.015625v0.015625-0.015625h-0.015625v-0.015625 0.015625 0.015625h-0.015625v-0.03125h0.015625 0.015625z"/>
  </symbol>
  <symbol id="r" overflow="visible">
   <path d="m0.03125-0.015625v0.015625-0.015625h-0.015625v-0.015625 0.015625 0.015625h-0.015625v-0.046875h0.015625v0.015625h0.015625v0.015625z"/>
  </symbol>
  <symbol id="q" overflow="visible">
   <path d="m0-0.046875h0.015625l0.015625 0.03125v-0.03125h0.015625v0.046875h-0.015625l-0.015625-0.03125v0.03125h-0.015625z"/>
  </symbol>
  <symbol id="p" overflow="visible">
   <path d="m0-0.015625v-0.015625h0.015625v0.015625 0.015625l0.015625-0.015625v-0.015625 0.03125h-0.015625-0.015625v-0.015625z"/>
  </symbol>
  <symbol id="o" overflow="visible">
   <path d="m0-0.03125h0.015625v0.03125c0 0.0078125-0.0078125 0.015625-0.015625 0.015625zm0-0.015625h0.015625v0.015625h-0.015625z"/>
  </symbol>
  <symbol id="n" overflow="visible">
   <path d="m0.03125-0.03125v0.015625c0-0.0078125-0.0078125-0.015625-0.015625-0.015625v0.015625 0.015625h0.015625v-0.015625 0.015625h-0.015625-0.015625v-0.015625l0.015625-0.015625h0.015625z"/>
  </symbol>
 </defs>
 <g>
  <path d="m575.81 337.43c2.1836 0 3.9492 2.7188 3.9492 6.0742s-1.7695 6.0742-3.9492 6.0742c-2.1836 0-3.9492-2.7188-3.9492-6.0742s1.7695-6.0742 3.9492-6.0742z" fill-rule="evenodd"/>
  <path d="m456.3 364.39c2.1836 0 3.9492 2.7188 3.9492 6.0742 0 3.3555-1.7695 6.0742-3.9492 6.0742-2.1836 0-3.9492-2.7188-3.9492-6.0742 0-3.3555 1.7695-6.0742 3.9492-6.0742z" fill-rule="evenodd"/>
  <path d="m346.48 351.95c2.1836 0 3.9492 2.7188 3.9492 6.0742s-1.7695 6.0742-3.9492 6.0742c-2.1836 0-3.9492-2.7188-3.9492-6.0742s1.7695-6.0742 3.9492-6.0742z" fill-rule="evenodd"/>
  <path d="m291.43 103.18 70.184 76.34c3.1523-1.6523 3.9648-4.9844 4-11.559 0.003906-1.1055-0.007813-2.3047-0.03125-3.5938l-61.227-72.414c-0.22266 0.55859-0.46875 1.1055-0.73438 1.6406-1.2383 2.4609-2.9727 4.6523-5.1875 6.3594-1.9766 1.5234-4.3164 2.6484-7.0039 3.2266zm63.875 77.734-71.27-77.52c-5.8555-0.8125-8.1641-3.5703-10.168-5.9609-1.3906-1.6602-2.5234-3.0117-7.1992-1.4258 1.5156 1.6523 3.4336 3.7227 5.6289 6.0977 11.289 12.207 29.848 32.273 38.562 43.105l0.050781-0.042969 30.027 35.816c1.9844 0.0625 4.0625 0.074219 6.2578 0.085937l0.99219 0.003907c2.7812 0.015625 5.1328-0.015625 7.1172-0.15625zm-22.484-0.91406-8.125-9.6914c1.043 5.8281 3.8594 8.4805 8.125 9.6914zm-14.145-16.867-6.2148-7.4141c-5.9258 0.42969-9.9609 4.6875-12.086 10.301-1.1406 3.0195-1.7461 6.4062-1.8125 9.832-0.066406 3.4492 0.40625 6.9219 1.418 10.082 2.0586 6.4258 6.3789 11.504 12.918 12.051v0.003906l10.664 0.51953v-0.003906c4.6523 0.11719 13.789 0.12109 24.445 0 9.2266-0.10547 19.637-0.30469 29.312-0.60938l0.007812 0.20312c1.9023-0.058594 3.8047-0.12891 4.4727-0.21484 5.9375-0.75391 10.473-2.7188 13.441-6.2695 3.0234-3.6172 4.582-9.0156 4.5234-16.605-0.035156-3.5586-0.79688-7.4375-2.3984-10.805-1.3086-2.7539-3.1836-5.1367-5.6797-6.6406-2.0273-1.2227-3.8789-2.3359-5.7578-3.0938-1.8242-0.73438-3.7969-1.207-6.2227-1.2422l-8.8945-0.12891c0.03125 0.99609 0.066406 2 0.10156 2.9727 0.16016 4.6836 0.28906 8.5859 0.27344 11.918-0.089844 17.059-3.5859 18.77-23.023 18.668l-0.99219-0.003906c-2.7891-0.011719-5.3945-0.027344-7.7305-0.13281-13.492-0.61328-21.301-3.8984-20.77-23.383zm46.633-7.8477-0.074219 0.023438 0.078125 0.089844zm-57.121-4.6602-1.5664-1.8672 0.054688-0.042968c-7.9727-9.8438-27.027-30.449-38.469-42.82-2.2734-2.457-4.25-4.5977-5.7812-6.2617-1.8516 4.1094-5.0508 10.438-13.148 13.727l-47.633 99.426c-0.32422 0.67969-0.53516 2.0898-0.87891 4.3984-0.15625 1.043-0.33594 2.25-0.57422 3.6797-0.023437 0.15234-0.042968 0.30469-0.070312 0.45703h-0.007812c-0.25 1.4609-0.55859 3.1484-0.96094 5.1094h0.007812c-2.707 13.785-18.457 17.363-33.016 20.668l-1.5117 0.34375c-0.17188 0.89062-0.33203 1.8203-0.49219 2.7188-1.4258 8.1016-2.4648 14.008-13.609 17.188-3.5625 1.0156-4.4141 1.2617-5.1953 1.4883-9.2305 2.6719-16.133 4.6719-24.922 5.8633-1.5898 0.21484-3.2773 0.40625-5.0977 0.57422-1.8242 0.16797-3.6875 0.30078-5.6094 0.40234-4.0664 0.21094-8.8555-0.0625-13.191-1.4102l-0.039062-0.007813v-0.003906c-0.80469-0.25-1.5938-0.53906-2.3594-0.86719-4.0195-1.7266-7.4023-4.5312-9.168-8.9141-2.3164-5.7422 0.75391-17.359 3.4375-27.504 0.91016-3.4414 1.7734-6.7031 2.3359-9.375 0.23047-1.0898 0.32422-1.5625 0.42969-2.082 0.68359-3.3984 1.6094-7.9844 2.5508-10.449 2.2852-6.0039 4.5508-6.1914 8.625-5.7617 0.76953 0.058594 1.9375 0.16797 3.4023 0.33203l0.09375 0.003907c2.8594 0.13281 6.2773-1.0273 9.8438-2.2383 4.5625-1.5508 9.3359-3.1719 14.426-2.8008 7.9453 0.57812 11.391-1.2305 17.145-4.2461 1.0977-0.57422 2.2695-1.1914 3.6055-1.8594 0.63672-0.32031 1.2383-0.60938 1.8008-0.87109v-0.003906c0.4375-0.20703 0.87891-0.40625 1.3242-0.59375 1.4453-0.63281 2.6328-1.0859 3.6562-1.4766 3.707-1.4141 4.8477-1.8477 8.2656-9.0703l36.562-75.656c2.1602-4.4648 2.4531-6.4141 2.7812-8.6055 0.29688-1.9766 0.62109-4.1172 1.9727-7.8633 0.40625-1.8867 1.168-3.8086 2.332-5.7266l0.007812 0.003906c0.66797-1.4922 1.4492-3.1562 2.3633-5.0234 2.4883-5.0703 4.4609-9.375 6.1055-12.949 8.1289-17.699 8.7852-19.129 25.555-19.121 4.793 0.003906 16.512 1.8867 27.324 4.1641 10.047 2.1172 19.488 4.6289 22.262 6.3906l0.097656 0.066406c3.2891 2.2891 6.1719 5.3008 8.5117 8.7109 0.73828 0.97656 1.375 2.0195 1.9141 3.1055 2.3906 4.3164 3.9492 9.0977 4.4336 13.777l52.961 62.637c0.67578-0.027344 1.3984-0.10938 2.1289-0.30078 1.125-0.29297 2.332-0.85938 3.5234-1.9102l0.80078-0.70312 12.254 0.17578c3.2227 0.046874 5.832 0.66406 8.2344 1.6328 2.3477 0.94531 4.3633 2.1562 6.5664 3.4883 3.5078 2.1172 6.0859 5.3516 7.8438 9.0469 1.9531 4.1055 2.8789 8.8203 2.9219 13.145v0.011718c0.070313 8.9961-1.9297 15.582-5.8164 20.227-3.9414 4.7109-9.6719 7.2812-17.031 8.2148-1.1016 0.14063-4.1914 0.23828-6.6211 0.30469l0.33984 14.23 98.266-3.7656c3.375-0.12891 6.8672-0.26172 10.445-0.32031v-0.046875c1.1602-0.007812 2.3281-0.039062 3.4219-0.070312 3.3789-0.09375 6.1758-0.16797 8.5273 0.32422 0.32031 0.019532 0.64453 0.039063 0.96875 0.058594l0.015626-0.1875c3.2852 0.24609 6.2266 0.59375 8.832 1.1406 23.172 3.5625 46.699 16.375 61.895 58.043l0.011719 0.03125c0.75 2.1367 1.8789 5.1406 3.207 8.6641 6.0391 16.027 16.113 42.766 16.766 59.594 0.23047 5.9844-0.84766 10.227-2.6406 13.18-1.3203 2.1719-2.9961 3.6484-4.8281 4.6016-1.8047 0.9375-3.7539 1.3594-5.6562 1.4297-2.2227 0.085938-4.4062-0.33203-6.1992-0.94922-5.1406 8.8945-10.379 12.695-16.355 17.031-7.1016 5.1523-15.328 11.121-25.82 28.598-1.5195 2.5312-2.125 7.2383-2.7969 12.441-1.0977 8.5156-2.3438 18.227-8.2148 24.676-1.8047 1.9844-4.7539 3.5625-8.043 4.1133-2.8359 0.47656-5.9648 0.21484-8.8789-1.1758-10.898-5.1953-11.164-14.062-7.6016-22.918 3.1875-7.9297 9.5977-15.699 13.422-20.223 4.7695-5.6406 8.6758-12.875 12.707-20.332 7.1328-13.199 14.637-27.078 28.316-35.48l-0.019531-0.039062c0.35156-0.19531 0.69531-0.38281 1.0273-0.56641l0.011718-0.007812c-1.0469-2.3281-1.8125-5.3477-2.0664-8.3555-0.26562-3.1523 0.007813-6.4023 1.0781-9.0117-4.6133-6.4648-8.7461-17.523-10.969-23.473-0.31641-0.84375-0.58203-1.5547-0.96094-2.5273-2.5547-6.5352-5.2383-11.98-8.3086-16.254-2.2383-3.1172-4.6953-5.625-7.4805-7.4961-0.51562-0.29688-0.46484-0.26562-0.48438-0.27734-0.32031-0.17969-0.67188-0.375-1.0469-0.58984-9.75 5.7734-16.262 7.75-23.824 8.5234-0.050781 0.011719-0.10547 0.027344-0.15625 0.039063-1.3125 0.31641-2.6953 0.41797-4.1562 0.28125-2.5039 0.12891-5.1875 0.1875-8.1719 0.25-3.1797 0.070312-6.7227 0.14453-10.797 0.33203 1.1602 2.1133 2.7227 4.332 4.3789 6.6836 5.0156 7.1289 10.809 15.363 10.809 27.117 0 2.6875-0.10547 6.3281-1.1406 9.4766-1.2539 3.8242-3.7188 6.7969-8.4883 6.8633-0.39062 0.003906-0.76953-0.003906-1.1328-0.023438-1.0664 1.9844-2.4922 3.7812-4.1133 5.3242-1.707 1.625-3.6484 2.9844-5.6094 3.9961 1.2148 4.0977 2.1289 7.9414 2.6992 11.52l0.25 1.418c0.64453 3.668 1.7344 9.8906 0.75781 15.449-1.1328 6.4648-4.707 11.844-13.758 11.797-1.8906 0.15234-3.5547 0.066406-5.0195-0.21484-0.12891 0.097656-0.26172 0.19922-0.39062 0.29688-4.6719 4.4258-8.3711 7.9844-11.855 11.633-3.418 3.582-6.6562 7.2773-10.445 12.023-0.72656 1.9648-1.1406 4.375-1.5586 6.8242-0.59766 3.5117-1.2109 7.1016-2.8242 10.332-3.5117 7.0391-9.0391 6.5234-16.449 5.832l-0.054688-0.003906c-8.3828 14.168-8.4062 18.027-8.4492 25.379-0.023437 4.0703-0.054687 9.1133-1.2227 16.93-1.1289 7.7773-4.8867 13.117-9.6094 16.109-2.7812 1.7656-5.9062 2.707-9.0391 2.8477-3.125 0.14062-6.2539-0.51953-9.0547-1.9609-4.543-2.3398-8.2031-6.6914-9.5625-12.945-0.89453-4.1172-0.28906-8.5 1.2344-12.801 1.75-4.9336 4.7148-9.7812 7.9531-13.949 11.297-14.531 18-25.578 24.172-35.742 4.6055-7.5898 8.9219-14.699 14.566-22.363l-0.003906-0.003906c1.9375-2.8281 3.8242-5.4062 5.6602-7.7578 6.4336-10.082 6.5-16.145 6.5742-22.664l0.011719-1.0039c0.039062-2.9805-0.29297-6.7578-1.0234-10.273-0.58984-2.8477-1.4258-5.4609-2.4961-7.1953l-0.11719-0.19141-19.512-43.355c-16.402 6.2695-41.805 5.1836-59.359 4.4102 2.3008 3.6797 5.8945 8.0273 9.5195 12.406 7.8594 9.5039 15.832 19.145 13.176 25.832-1.0898 2.7461-0.77734 6.707-0.47656 10.496 0.13281 1.6602 0.26172 3.2891 0.27344 5.043 0.019531 2.2891-0.60547 4.4336-1.7852 6.5-1.0977 1.918-2.6562 3.7461-4.6133 5.5469-1.8164 1.668-4.0195 3.3398-6.5664 5.0547-2.5 1.6797-5.2969 3.3867-8.3711 5.1641-7.1016 4.1133-14.758 8.8945-21.707 13.965-6.8945 5.0312-13.125 10.367-17.473 15.641-3.0039 3.6445-5.1367 6.957-6.6523 10.012-1.4883 3.0039-2.3711 5.75-2.8906 8.3164-0.62891 3.0898-0.82812 7.1094-1.0312 11.293-0.29688 6.0859-0.61328 12.504-2.3008 17.703-2.7461 8.4688-8.5508 13.555-21.719 9.2852-5.0234-1.6289-8.8789-4.3711-10.77-8.793-1.8125-4.2383-1.668-9.8438 1.2148-17.27 2.1719-5.5859 6.2344-10.215 10.754-15.363 1.1953-1.3633 2.4297-2.7695 3.8555-4.4727 4.1758-4.9883 8.4414-12.195 12.402-18.898 2.043-3.4531 4.0039-6.7695 5.9336-9.7383 5.6211-8.6367 10.172-14.312 15.453-19.215 4.7266-4.3906 9.9727-8.1016 17.062-12.746 0.27344-0.19531 0.53516-0.375 0.78906-0.54297-2.5742-10.789-3.9258-15.98-9.8984-22.305-32.289-34.168-46.641-66.461-50.766-75.738l-0.5625-1.2344c-0.19141-0.33984-0.40234-0.72656-0.625-1.1602-4.3789-8.4688-3.5469-15.957-0.43359-22.023 3.0234-5.8906 8.2188-10.332 12.773-12.941 0.34766-0.19922 0.75391-0.41797 1.207-0.65234 11.199-5.7891 30.637-6.0508 45.84-6.2539 3.0859-0.042969 5.9883-0.082031 8.6328-0.16797l-0.28125-15.555-13.848-0.67578h-0.097656c-9.1484-0.76172-15.066-7.4688-17.773-15.922-1.1992-3.7383-1.7578-7.832-1.6797-11.875 0.078126-4.0703 0.79688-8.1094 2.1602-11.711 2.4141-6.3828 6.7969-11.465 13.172-13.258l-0.13281-0.17188zm-77.344-33.922-39.293 83.477c2.6758 2 4.8867 4.4492 6.4375 7.3281l43.98-91.801c-3.8477 0.88281-7.6016 1.1836-11.125 0.99609zm-44.109 80.59 38.305-81.375c-0.20312-0.046875-0.40625-0.089844-0.60547-0.14062-4.5781-1.1094-8.5469-3.1094-11.535-5.7227-1.1055-0.96484-2.0781-2.0156-2.9023-3.1406-0.44922 1.6133-1.1797 3.5664-2.5156 6.332l-36.543 75.613c-0.96094 2.0312-1.7891 3.6484-2.5547 4.9531 2.8594-0.125 5.6992 0.035156 8.4375 0.47266 3.5234 0.55859 6.8906 1.5703 9.9102 3.0117zm145.23 6.8789 0.27734 15.391c9.8828-0.32031 19.844-0.69922 29.809-1.0781 2.8633-0.10938 5.7305-0.21875 8.5938-0.32422l-0.34766-14.484c-7.4883 0.19141-15.188 0.32422-22.242 0.40625-6.0195 0.066407-11.559 0.097657-16.09 0.089844zm-119.35-108.36c-0.21875 1.1602-0.22656 2.2812-0.050782 3.3516 0.41016 2.4922 1.8359 4.7891 4.0078 6.6914 2.3242 2.0352 5.4766 3.6055 9.1719 4.5 5.625 1.3594 12.441 1.1289 19.473-1.4336l0.015625-0.03125 0.95703-0.33594c0.82813-0.32422 1.6562-0.68359 2.4844-1.0742 5.4258-2.8672 7.6367-7.8359 8.9805-10.848 0.92188-2.0742 1.5859-3.5625 3.082-4.2227 11.652-5.4297 14.172-2.4258 17.418 1.4492 1.4453 1.7227 3.1211 3.7266 7.4805 4.1172 3.9219 0.35156 7.0586-0.63672 9.3867-2.4297 1.5273-1.1758 2.7383-2.7148 3.6133-4.4531 0.89844-1.7891 1.4492-3.7812 1.6289-5.8164 0.26172-2.9102-0.20703-5.9023-1.4414-8.5234-0.050781-0.097656-0.10547-0.19141-0.16016-0.28516-2.1641-3.8438-5.0938-7.2539-8.5469-9.668-2.2617-1.3984-10.938-3.6367-20.363-5.625-10.527-2.2188-21.785-4.0547-26.188-4.0547-13.195-0.007813-13.738 1.1797-20.48 15.859-1.6328 3.5586-3.5977 7.8359-6.1719 13.082-2.0938 4.2695-3.4258 7.375-4.3008 9.7578zm-92.379 115.96c3.4062 0.625 6.9609 1.3711 10.371 2.25 5.3047 1.3672 10.219 3.0469 13.66 5.0781 3.543 2.0898 5.7305 4.6602 5.7305 7.8164 0 3.1641-5.1641 10.773-11.953 18.941-2.3711 2.8516-4.9453 5.8008-7.5703 8.6719 5.7578-3.2695 12.098-6.4844 18.383-9.2148 3.3164-1.4375 6.1953-3.543 8-6.2109 1.4688-2.1719 2.2109-4.7578 1.8516-7.7031-1.1641-4.5156-3.2734-8.5469-6.2734-11.836-4.3398-4.7578-10.586-8.0039-18.566-8.9727-2.5078-0.30469-5.1758-0.38672-7.9922-0.22656-1.8711 0.28516-3.7656 0.80859-5.6445 1.4102zm-22.301 57.094c2.457 0.52344 4.832 0.33594 6.957-0.21875 2.9805-0.78125 5.4609-2.2773 7.0117-3.5898 6.2305-5.2695 14.945-14.457 21.855-22.766 6.0469-7.2695 10.641-13.59 10.641-15.375 0-0.88672-1.1367-1.918-2.9766-3.0039-2.9688-1.75-7.3789-3.2461-12.191-4.4844-4.25-1.0938-8.8398-1.9922-13.07-2.6953-4.3125-0.71484-8.2227-1.2227-11.004-1.5312-0.97266-0.058594-1.7617-0.14844-2.4766-0.23047-1.8672-0.21094-2.8359-0.32031-3.7539 2.0898-0.8125 2.1328-1.6719 6.3984-2.3086 9.5547l-0.42969 2.1289c-0.60156 2.8516-1.4766 6.1641-2.4023 9.6602-2.4609 9.3125-5.2812 19.973-3.6562 24.004 1.1367 2.8164 3.4219 4.6719 6.1719 5.8516 0.53125 0.22656 1.0781 0.42969 1.6367 0.61328zm-19.684-63.004c0.89453 0 0.99609 0.082031 1.0781 0.15234 0.03125 0.023437 0.058593 0.046875 0.30469 0.046875v0.22266c-0.32422 0-0.37891-0.042969-0.44531-0.097656-0.054687-0.042969-0.12109-0.10156-0.9375-0.10156zm66.742 1.8672c4.6055 1.918 8.4805 4.6719 11.582 8.0742 5.2188 5.7227 8.1914 13.23 8.7031 21.609 0.082032 1.3672 0.10156 2.7539 0.054688 4.1562 12.73-2.8906 26.348-6.0898 28.332-16.199l0.011719-0.023438c0.4375-2.1211 0.76562-3.9727 1.0273-5.5781 0.42187-3.3906-0.082032-6.3711-1.2891-8.918-1.3906-2.9375-3.7344-5.3516-6.6875-7.1953-3.082-1.9258-6.7969-3.2266-10.781-3.8555-6.4922-1.0312-13.648-0.28906-19.922 2.4219-0.17188 0.074219-0.34766 0.15234-0.52344 0.23047-0.16016 0.074219-0.32031 0.14453-0.47656 0.22266v-0.003906c-0.53516 0.24609-1.0977 0.51562-1.6875 0.8125-1.25 0.62891-2.4219 1.2422-3.5195 1.8164-1.7422 0.91406-3.3008 1.7305-4.8242 2.4258zm14.488 37.02 0.003907-0.027344c-2.2812 2.3945-5.2031 4.3164-8.4141 5.707-9.1133 3.957-18.406 9.0156-25.746 13.723-2.9375 1.8828-5.5312 3.6758-7.625 5.2695 0.66016-0.078125 1.3125-0.16016 1.9609-0.25 8.4062-1.1367 15.125-3.082 24.113-5.6875l5.2188-1.5117c7.7695-2.2148 8.5508-6.6641 9.625-12.766 0.23438-1.3242 0.48047-2.7188 0.86328-4.4609zm170.57 112.71c1.5391-0.65234 3.0312-1.2227 4.4922-1.7344l-0.11328-5.5039c-0.007812-0.39453-0.42969-0.67578-0.96875-0.83203-0.39062-0.11328-0.82812-0.16406-1.2695-0.16016-0.43359 0.003906-0.88281 0.074219-1.3047 0.20312-0.49609 0.14844-0.88281 0.30078-0.88281 0.38281zm4.6328 4.1602c-1.0352 0.39062-2.0859 0.81641-3.1523 1.2812-2.4062 1.0469-4.9141 2.293-7.582 3.8086-7.4414 4.8477-12.805 8.5781-17.512 12.949-4.9375 4.5859-9.2305 9.9492-14.578 18.164-1.7695 2.7188-3.7461 6.0625-5.8047 9.543-4.0781 6.8945-8.4648 14.309-12.93 19.641-1.1992 1.4336-2.5898 3.0195-3.9453 4.5586-4.1797 4.7617-7.9375 9.043-9.7461 13.703-2.3047 5.9297-2.5352 10.141-1.2812 13.07 1.1719 2.7422 3.8125 4.5234 7.332 5.668 9.0508 2.9336 12.941-0.26172 14.699-5.6758 1.4609-4.5039 1.7578-10.535 2.0391-16.262 0.21484-4.3945 0.42188-8.6172 1.1406-12.145 0.61328-3.0117 1.6367-6.2109 3.3516-9.6719 1.6875-3.4062 4.0469-7.0781 7.3516-11.086 4.668-5.6602 11.258-11.312 18.504-16.602 7.1914-5.25 14.996-10.129 22.188-14.293 3.0117-1.7461 5.7188-3.3906 8.0664-4.9688 0.17578-0.11719 0.35156-0.23828 0.52344-0.35547-0.054687-0.015625-0.11328-0.035157-0.16797-0.054688-2.0977-0.68359-4.0078-1.9805-5.4883-3.7422-1.6758-1.9922-2.7969-4.5781-3.0078-7.5312zm-10.227-6.6406-0.03125-5.1406c-0.019531-2.9727 2.1094-4.9336 4.8633-5.7656 0.87891-0.26562 1.8516-0.40625 2.8359-0.42188 0.97656-0.011719 1.9688 0.10938 2.8906 0.37891 2.7539 0.79688 4.9258 2.7578 4.9922 6.082l0.21875 10.664c0.039063 1.9141 0.70312 3.5625 1.7305 4.7852 0.79688 0.94922 1.8242 1.6484 2.9531 2.0117 1.082 0.35156 2.2617 0.38672 3.4141 0.027343 1.4062-0.4375 2.8164-1.4727 4.043-3.2422l0.007813 0.003906c0.625-1.1562 0.95703-2.3125 0.94531-3.4883-0.011719-1.3125-0.14062-2.9648-0.27344-4.6484-0.34766-4.3984-0.71484-9.0039 0.87109-12.988 1.4297-3.6016-5.4844-11.965-12.301-20.207-4.7344-5.7266-9.4258-11.398-11.73-16.254-4.125-0.21094-8.5664-0.65625-12.93-1.3281-5.6641-0.87109-11.285-2.1406-16.027-3.7812-8.1055-2.8047-8.9062-5.3984-10.871-11.754-0.19531-0.62891-0.40234-1.3086-0.73047-2.3047-1.7812-5.4609-3.5039-11.402-5.0742-17.332-1.7148-6.4766-3.2383-12.902-4.457-18.648-1.3789-6.5195-0.29688-10.711 2.5586-13.352 2.7461-2.5391 6.8867-3.2852 11.891-3.1211 7.582 0.24609 11.602 0.35547 21.621 0.62891l5.4531 0.14844c5.6836 0.15625 9.7695 4.2344 12.844 10.324 2.7461 5.4414 4.7109 12.566 6.3281 19.758 1.2852 5.7188 2.3359 11.301 3.1328 15.875 0.80469 4.6289 1.3516 8.2539 1.6016 9.957 0.65625 4.4219 1.0625 7.5391 0.27344 9.9922 15.855 0.55078 35.066 0.50391 47.863-4.2539-0.8125-1.0273-1.7344-1.5352-3.1484-2.3125-0.69922-0.38281-1.4961-0.82031-2.5938-1.4766-0.5-0.29688-0.98437-0.60938-1.457-0.9375-3.1094 1.1758-6.7422 1.7148-10.316 1.8789-6.9492 0.32031-13.914-0.8125-15.867-1.4062-3.5312-1.0781-6.4414-6.2773-8.5117-13.297-1.9336-6.5508-3.3281-14.902-3.8867-22.766-0.56641-7.9766-0.25781-15.559 1.2266-20.434 1.0508-3.4414 2.7734-5.793 5.293-6.5352 4.1289-1.2188 11.547-2.0312 19.578-1.7656 6.1172 0.20312 12.645 1.0312 18.434 2.7773 0.37109-0.10938 0.75-0.21484 1.1328-0.30859 4.6953-1.1484 9.1484-0.70312 13.16 0.84766 4.3711 1.6914 8.1719 4.6875 11.125 8.3398 2.918 3.6094 5.0469 7.9023 6.1094 12.242 0.24219 0.98828 0.42969 1.9805 0.55469 2.9727 2.6406 0.027344 6.2031-0.007812 9.8281-0.26562 4.2695-0.30469 8.5078-0.91406 11.008-2.0977 6.8633-3.2578 10.766-9.2305 12.902-12.5 0.41406-0.63281 0.76953-1.1758 1.0664-1.5938 7.2891-10.18 16.617-10.066 32.258-9.875 3.0391 0.039062 6.3359 0.078125 9.9102 0.039062-0.046876-0.23438-0.09375-0.45312-0.14453-0.65234-1.457-6.0469-3.3867-8.168-6.4023-8.8633-6.9062-0.33203-13.648-0.074218-19.945 0.16797-32.852 1.2617-65.707 2.5195-98.559 3.7773h-0.046875l-5.2969 0.20312v-0.007813c-2.8438 0.10547-5.6875 0.21484-8.5312 0.32422-10.262 0.39062-20.523 0.77734-30.883 1.1133l-1.7188 0.085938c-3.2422 0.16406-7.2227 0.21875-11.551 0.27734-14.613 0.19531-33.297 0.44531-43.348 5.6406-0.26562 0.13672-0.59766 0.32031-0.98828 0.54297-3.8125 2.1836-8.1328 5.8477-10.586 10.625-2.3633 4.6055-2.9688 10.344 0.43359 16.926 0.14844 0.28516 0.33594 0.63281 0.57031 1.0391l0.054687 0.09375 0.066407 0.14844c0.28516 0.625 0.13281 0.3125 0.62891 1.4258 4.0312 9.0703 18.066 40.652 49.738 74.164 5.6914 6.0195 7.7266 10.891 9.7969 18.832zm52.289-109.75c-2.8008 0.54297-4.8789 1.6719-6.3281 3.5-2.2891 2.8906-3.3438 7.6641-3.5039 14.723-0.046875 1.9961 0.042969 3.875 0.26953 5.6094 0.48047 3.6719 1.582 6.6562 3.3828 8.6758 1.3867 1.5586 3.2578 2.5742 5.6641 2.9141-1.2305-2.6914-2.1211-5.5586-2.6719-8.4688-1.543-8.1562-0.78906-18.383 3.0352-26.621 0.050781-0.10938 0.10547-0.22266 0.15625-0.33203zm2.7773 41.09c-0.63281 0.039063-1.25 0.050782-1.8477 0.035156-4.8633-0.10937-8.5898-1.8672-11.289-4.8984-2.5742-2.8906-4.1133-6.8906-4.7383-11.676-0.26172-2.0078-0.36328-4.1641-0.3125-6.4375 0.1875-8.3242 1.6055-14.176 4.707-18.09 3.1719-4 7.8281-5.8242 14.402-5.9805 1.1953-1.4922 2.543-2.8438 4.0508-4.0234-3.6172-0.65234-7.375-1.0039-10.992-1.1211-7.4336-0.24609-14.172 0.46875-17.828 1.5469-0.51953 0.15234-1.0352 1.1758-1.5312 2.7969-1.2734 4.1758-1.5078 11.039-0.98828 18.422 0.53125 7.5 1.8477 15.422 3.668 21.582 1.5625 5.3008 3.2617 9.0742 4.7695 9.5312 1.6562 0.50781 7.7227 1.457 14.008 1.168 1.9375-0.089844 3.8711-0.29688 5.6602-0.67578-0.61328-0.69531-1.1953-1.4219-1.7461-2.1758zm-72.906-45.203 8.1133 35.785c1.2266 5.4062 0.03125 7.2461-2.9531 7.9219-1.0117 0.23047-1.9766 0.15625-3.1289 0.070313-0.73828-0.054687-1.5742-0.11719-2.3359-0.09375-0.85156 0.027344-1.3828 0.27344-1.6406 0.62109-0.13672 0.18359-0.21484 0.41016-0.23828 0.65625-0.027343 0.30078 0.019532 0.625 0.14844 0.94141 0.25781 0.64453 0.83203 1.2148 1.707 1.4688 8.3125 2.4062 16.723 2.9688 19.219 3.1367l0.63281 0.042968c1.7227 0.14453 2.8164-0.37891 3.3086-1.1445 0.18359-0.28516 0.29297-0.60547 0.32812-0.92578 0.035157-0.34766-0.003906-0.70312-0.12891-1.0391-0.32812-0.90625-1.2891-1.6953-2.9414-1.9219-1.9961-0.27344-3.3711-0.84375-4.582-2.5312-0.91016-1.2695-1.5273-3.0703-2.1641-5.9805l-8.0703-36.863c-1.9688-0.054687-3.6914-0.10156-5.2773-0.14453zm11.035 0.30078 7.7773 35.523c0.47266 2.1562 0.82812 3.3555 1.2227 3.9023 0.09375 0.12891 0.35547 0.19531 0.79688 0.25391 3.9961 0.55078 6.4609 2.8555 7.4453 5.5547 0.41406 1.1367 0.55859 2.3398 0.43359 3.5117-0.125 1.1953-0.52344 2.3516-1.1836 3.3789-1.5312 2.375-4.3984 4.043-8.4727 3.7031-0.30859-0.027344-0.41406-0.03125-0.54688-0.042969-2.6211-0.17578-11.461-0.76953-20.398-3.3555-2.6836-0.77734-4.4922-2.6328-5.3359-4.75-0.45703-1.1406-0.63281-2.3594-0.51953-3.543 0.11719-1.2383 0.55078-2.4336 1.3125-3.457 1.2148-1.6328 3.1914-2.7812 5.9492-2.875 1.168-0.039062 2.1016 0.03125 2.9258 0.09375 0.71484 0.054688 1.3203 0.097656 1.4883 0.0625 0.62109-0.14062-1.0078-0.10547-1.2695-1.25l-8.4258-37.176c-2.1289-0.0625-4.2617-0.12891-6.7773-0.21094-3.625-0.11719-6.4492 0.26562-7.9297 1.6367-1.375 1.2695-1.7891 3.7734-0.875 8.1016 1.207 5.6992 2.7109 12.039 4.3906 18.387 1.5352 5.8047 3.2266 11.637 4.9844 17.027 0.22656 0.69531 0.5 1.5781 0.75 2.3945 1.3711 4.4375 1.9297 6.2461 7.3477 8.1211 4.3398 1.5039 9.6289 2.6836 15.047 3.5195 4.4102 0.67969 8.8477 1.1211 12.887 1.3125l1.2031 0.050781 0.23828 0.007813c0.95703 0.03125 1.8906 0.050781 2.7891 0.050781 3.3281 0.007813 4.832-0.26953 5.1914-0.99609 0.54297-1.0938 0.1875-3.6992-0.40234-7.6875-0.25-1.6953-0.79297-5.2891-1.582-9.8281-0.79688-4.5938-1.8359-10.121-3.0664-15.59-1.5312-6.8125-3.3711-13.516-5.8672-18.469-2.1719-4.3008-4.7695-7.1719-7.9883-7.2617l-3.5391-0.097656zm114.34 127.38c2.4141-1.3594 4.6172-2.2109 6.5742-2.6445-0.015625-1.3047-0.007813-2.5898-0.003906-3.8242l0.003906-1.0039c0.007813-1.9258-0.33594-2.9062-0.85156-3.3359-0.48047-0.40234-1.3477-0.48828-2.25-0.48047-1.0742 0.007813-2.1836 0.14844-2.8242 0.67188-0.55469 0.45312-0.86719 1.4375-0.64453 3.3398 0.15234 1.3008 0.23047 2.668 0.21484 4.0586-0.011718 1.082-0.082031 2.1602-0.22266 3.2148zm6.8711 3.0117c-2.7227 0.79687-6.2031 2.75-10.387 6.332-3.4688 2.9727-7.332 7.0156-11.539 12.383-0.60156 0.93359-1.25 1.8945-1.9492 2.8906l-0.097656 0.12109c-1.2383 1.5664-2.4141 3.1055-3.5352 4.6211l-0.066407 0.097656-0.003906-0.003906c-5.5664 7.543-9.8398 14.582-14.406 22.105-6.2969 10.375-13.141 21.652-24.523 36.289-2.9258 3.7617-5.5781 8.0742-7.1016 12.375-1.1992 3.3828-1.6953 6.7422-1.0391 9.7617 0.97266 4.4688 3.5156 7.543 6.6523 9.1602 1.9258 0.99219 4.0898 1.4492 6.2539 1.3477 2.1602-0.097656 4.3281-0.75781 6.2812-1.9961 3.4492-2.1875 6.2109-6.207 7.0742-12.184v-0.011719c1.1289-7.543 1.1562-12.301 1.1797-16.141 0.042969-7.3828 0.070312-11.672 6.332-23.152 7.8086-16.047 24.336-31.227 32.086-38.344 1.0547-0.96875 1.9492-1.7891 2.5508-2.3594l0.33984-0.35938c3.2617-3.418 6.6758-6.7266 10.848-10.688-3.1328-2.8008-4.4336-7.3281-4.9609-12.238zm-15.016 2.3398c0.43359-0.41406 0.80469-0.88672 1.1172-1.4023 1.1602-1.9297 1.6406-4.5117 1.668-7.207 0.011719-1.0859-0.058593-2.2266-0.19141-3.3828-0.48047-4.1289 0.71875-6.6914 2.6602-8.2852 1.8516-1.5234 4.2109-1.9258 6.3438-1.9414 2.0156-0.015625 4.1094 0.30859 5.8594 1.7734 1.7109 1.4336 2.8594 3.7773 2.8438 7.6484l-0.003906 1.0039c-0.015625 2.7773-0.035156 5.8203 0.25781 8.6836 0.45313 4.4375 1.7578 8.4453 5.4922 9.8047 0.082031 0.007812 0.16797 0.015625 0.24609 0.023437l0.17969 0.011719 0.11719 0.019531c8.3242 1.4609 11.301-2.2031 12.105-6.7852 0.80469-4.5977-0.17969-10.211-0.75781-13.523-0.058594-0.33594-0.10938-0.625-0.25-1.5039-1.3398-8.4453-4.8164-18.672-9.7188-30.375-3.8945-9.3047-8.6445-19.441-13.918-30.32l-0.011718-0.03125c-1.1211-2.3125-2.2656-4.6562-3.4297-7.0312-4.0234-7.1016-8.2188-11.07-11.336-14.016-4.8711-4.6016-7.6719-7.2461-5.1719-13.703 1.1172-2.8906 1.1328-6.3594 0.27734-9.8594-0.86328-3.5195-2.6172-7.0391-5.0352-10.031-2.3867-2.9492-5.3906-5.3398-8.7852-6.6562-2.9922-1.1562-6.3203-1.4883-9.832-0.62891-6.1328 1.5039-10.328 5.9297-12.895 11.465-3.3242 7.1641-3.9727 16.098-2.6172 23.254 0.71875 3.8008 2.125 7.5039 4.1953 10.711 1.875 2.8984 4.2969 5.3828 7.25 7.1484 0.82031 0.49219 1.6719 0.95703 2.418 1.3672 4.0664 2.2305 5.4414 2.9883 7.9062 9.8594l19.461 43.242c1.3828 2.3242 2.4062 5.4688 3.0938 8.7852 0.80859 3.8984 1.1797 8.1211 1.1328 11.477l-0.011719 0.98047c-0.035156 3.1094-0.070312 6.125-0.63672 9.4258zm32.477-49.359c0.71094-0.73047 1.5-1.4062 2.3594-2.0156 1.6484-1.1641 3.5547-2.0859 5.6875-2.6914-0.050781-2.5234-0.17187-4.3359-0.50391-5.543-0.23047-0.83594-0.64062-1.2578-1.4102-1.457-0.67969-0.17578-1.457-0.25-2.25-0.26172-1.082-0.015625-2.2188 0.097656-3.207 0.23828-0.73828 0.10547-0.71094 4.9375-0.68359 9.332 0.003906 0.81641 0.007813 1.625 0.003906 2.3984zm8.1953 1.125c-0.96484 0.38281-1.8398 0.85547-2.6172 1.4062-1.3516 0.95703-2.4258 2.1562-3.1758 3.5195 1.4492 3.6211 2.7539 7.1016 3.8867 10.434 1.2109-0.71094 2.4062-1.5977 3.4883-2.6289 0.97656-0.92969 1.8516-1.9688 2.5586-3.0859-0.86719-0.66016-1.5898-1.4883-2.1953-2.4844-1.1406-1.875-1.7188-4.2734-1.9453-7.1641zm-13.301-12.41c0.60938-3.1602 1.9766-5.543 5-5.9805 1.1836-0.17188 2.5938-0.30469 4.0586-0.28125 1.2148 0.015625 2.4453 0.14062 3.582 0.4375 2.9727 0.77344 4.5508 2.3281 5.3906 5.3945 0.62109 2.2695 0.70312 5.3633 0.73438 9.9336 0.019531 3.2344 0.34375 5.6953 1.2461 7.1875 0.66016 1.0859 1.8789 1.6562 3.9023 1.6289 1.7227-0.023437 2.6875-1.332 3.2383-3.0156 0.77344-2.3594 0.85547-5.4453 0.85547-7.7461 0-10-5.2422-17.449-9.7812-23.902-2.3281-3.3086-4.4883-6.3789-5.8672-9.5586-6.4531 0.43359-14.105 1.1758-23.43 2.5039 0.98438 1.8555 1.957 3.8984 2.8984 6.1484 2.9062 5.9922 5.6484 11.754 8.168 17.254zm-31.527 101.91c-3.6719 3.9336-7.3984 8.2969-10.648 12.863 3.8242 0.25 6.6758-0.0625 8.1445-3.0039 1.25-2.5039 1.7891-5.6758 2.3203-8.7773 0.0625-0.35938 0.12109-0.72266 0.18359-1.082zm82.203-180.72c-3.8867 0.050781-7.4414 0.007812-10.703-0.03125-13.805-0.16797-22.043-0.26953-27.645 7.5547-0.26953 0.37891-0.57812 0.85156-0.9375 1.3945-2.4375 3.7344-6.8945 10.551-15.199 14.492-3.2266 1.5312-8.1562 2.2773-12.996 2.6211-3.6719 0.26172-7.3711 0.29688-10.152 0.26953-0.18359 1.6055-0.55078 3.1602-1.1211 4.6289-1.1445 2.9531 0.66016 4.6562 3.7969 7.6211 2.8242 2.668 6.457 6.1016 10.129 11.648 20.625-3.0586 33.582-3.3398 43.266-3.5508 4.4609-0.097657 8.1953-0.17578 11.684-0.53516 2.5352-0.86328 4.5078-3.3945 6.0352-6.8672 1.8438-4.2031 2.9727-9.6836 3.6055-15.406 0.95703-8.6367 0.78125-17.676 0.24219-23.844zm2.3633-14.191c0.80859 1.75 1.5312 3.9375 2.1914 6.6797 0.98437 4.0859 1.9297 15.438 1.1914 26.957 0.92578-2.793 2.2695-5.4453 3.7031-8.2617 1.5234-2.9961 3.1484-6.1992 4.3516-9.832 0.32422-1.543 0.4375-3.4141 0.10156-5.8164-0.54688-3.9102-2.1602-6.3125-4.8438-7.8008-1.0391-0.57812-2.25-1.043-3.6289-1.4258-1.0234-0.18359-2.043-0.35156-3.0664-0.49609zm2.2734 43.559c-0.74219 4.4336-1.8281 8.6133-3.3672 12.117-0.39453 0.89844-0.82031 1.7578-1.2773 2.5664 3.0195-1.0117 6.2109-2.4453 9.8867-4.4961-2.4492-2.3047-4.668-5.5508-5.2422-10.184zm8.2109-12.48c-1.2227 2.5586-2.207 5.0195-2.5742 7.5391-1.0508 7.2422 3.0273 11.078 6.2148 13.164 4.6367 2.3555 8.5078 5.9219 11.906 10.652 3.3828 4.7109 6.2773 10.551 8.9844 17.48 0.13672 0.35547 0.52734 1.3945 0.98438 2.6172 2.1836 5.8477 6.3008 16.871 10.543 22.547l11.531 1.832c-2.0625-4.0898-3.7422-9.625-5.7812-16.367-0.73438-2.4219-1.5117-4.9922-2.1953-7.1562-2.7148-8.625-6.0664-16.379-9.332-22.832-4.9688-9.8203-9.668-16.535-11.613-18.695-3.9609-4.4062-7.5508-5.2617-10.488-5.9648-3.3125-0.79297-6.0352-1.4414-8.1797-4.8203zm37.18 91.684c4.418-2.1328 7.1172-2.8945 11.012-3.9336 0.24219-2.2461 0.62891-4.3203 1.0391-6.0039l-13.062-2.0781c-0.49219 1.6016-0.58984 3.668-0.41406 5.7578 0.19922 2.3555 0.72656 4.6289 1.4219 6.2578zm10.797 1.9102c-3.8516 1.0664-6.8047 2.1289-13.109 5.5742-12.863 7.5898-20.133 21.035-27.035 33.812-4.1719 7.7188-8.2188 15.207-13.363 21.297-3.6016 4.2656-9.6367 11.574-12.5 18.691-2.4883 6.1914-2.4141 12.336 4.8242 15.789 1.8008 0.85938 3.7656 1.0156 5.5547 0.71484 2.0469-0.34375 3.8125-1.25 4.8281-2.3633 4.6992-5.1602 5.8242-13.926 6.8164-21.613 0.75-5.8203 1.4258-11.086 3.5391-14.605 11.098-18.484 19.809-24.805 27.328-30.262 5.8477-4.2422 10.922-7.9219 15.789-17.062-0.64844-1.0352-1.1641-2.1797-1.5664-3.3945-0.67578-2.0469-1.0078-4.3047-1.1016-6.5781zm-42.695-120.67c0.61328 1.4492 1.0469 3.0898 1.3086 4.9531 0.91797 6.5508-0.67188 10.047-1.9688 12.902-0.85938 1.8945-1.5234 3.3555-0.11719 5.8594 1.0117 1.8047 2.7852 2.2266 4.9648 2.75 3.7109 0.88672 8.2461 1.9688 13.352 7.6484 2.1328 2.375 7.2188 9.5898 12.445 19.922 3.3867 6.6992 6.8672 14.742 9.6836 23.684 0.90625 2.8789 1.582 5.1055 2.2148 7.1992 2.4453 8.0703 4.332 14.309 6.7422 17.73l0.27344 0.38672h-0.003906c0.88281 1.2422 1.2695 1.793 1.3906 2.8828 0.10156 0.89062-0.066406 1.3984-0.35937 2.3047-0.097657 0.30469-0.22656 0.69922-0.37891 1.2656-0.47266 1.7656-0.9375 4.1094-1.1602 6.6055-0.28516 3.1719-0.20312 6.6055 0.72266 9.3984 0.77344 2.3398 2.1914 4.1914 4.6055 4.8398 0.41797 0.11328 0.84375 0.19141 1.2812 0.23828 0.070312 0 0.14062-0.003906 0.21484-0.007812 1.1133-0.042969 2.2422-0.28516 3.2695-0.82031 1-0.51953 1.918-1.3281 2.6406-2.5234 1.2656-2.082 2.0156-5.3008 1.832-10.098-0.61719-15.887-10.496-42.105-16.414-57.82-1.3047-3.4609-2.418-6.4141-3.2383-8.7617-10.984-30.125-26.676-44.164-43.301-50.547z"/>
  <use x="70" y="560.167969" xlink:href="#x"/>
  <use x="70.042969" y="560.167969" xlink:href="#c"/>
  <use x="70.070312" y="560.167969" xlink:href="#a"/>
  <use x="70.105469" y="560.167969" xlink:href="#b"/>
  <use x="70.144531" y="560.167969" xlink:href="#e"/>
  <use x="70.171875" y="560.167969" xlink:href="#a"/>
  <use x="70.210938" y="560.167969" xlink:href="#i"/>
  <use x="70.269531" y="560.167969" xlink:href="#m"/>
  <use x="70.308594" y="560.167969" xlink:href="#h"/>
  <use x="70.363281" y="560.167969" xlink:href="#l"/>
  <use x="70.414063" y="560.167969" xlink:href="#w"/>
  <use x="70.433594" y="560.167969" xlink:href="#a"/>
  <use x="70.46875" y="560.167969" xlink:href="#k"/>
  <use x="70.507812" y="560.167969" xlink:href="#g"/>
  <use x="70.539062" y="560.167969" xlink:href="#b"/>
  <use x="70.578125" y="560.167969" xlink:href="#f"/>
  <use x="70.617188" y="560.167969" xlink:href="#i"/>
  <use x="70.65625" y="560.167969" xlink:href="#c"/>
  <use x="70.707031" y="560.167969" xlink:href="#j"/>
  <use x="70.746094" y="560.167969" xlink:href="#b"/>
  <use x="70.785156" y="560.167969" xlink:href="#f"/>
  <use x="70.824219" y="560.167969" xlink:href="#b"/>
  <use x="70.863281" y="560.167969" xlink:href="#g"/>
  <use x="70.894531" y="560.167969" xlink:href="#d"/>
  <use x="70.933594" y="560.167969" xlink:href="#v"/>
  <use x="70.96875" y="560.167969" xlink:href="#g"/>
  <use x="71.003906" y="560.167969" xlink:href="#k"/>
  <use x="71.039062" y="560.167969" xlink:href="#h"/>
  <use x="71.078125" y="560.167969" xlink:href="#u"/>
  <use x="70" y="560.222656" xlink:href="#t"/>
  <use x="70.023438" y="560.222656" xlink:href="#c"/>
  <use x="70.050781" y="560.222656" xlink:href="#d"/>
  <use x="70.089844" y="560.222656" xlink:href="#s"/>
  <use x="70.167969" y="560.222656" xlink:href="#e"/>
  <use x="70.195313" y="560.222656" xlink:href="#r"/>
  <use x="70.234375" y="560.222656" xlink:href="#a"/>
  <use x="70.292969" y="560.222656" xlink:href="#q"/>
  <use x="70.339844" y="560.222656" xlink:href="#d"/>
  <use x="70.378906" y="560.222656" xlink:href="#p"/>
  <use x="70.417969" y="560.222656" xlink:href="#f"/>
  <use x="70.476562" y="560.222656" xlink:href="#j"/>
  <use x="70.519531" y="560.222656" xlink:href="#c"/>
  <use x="70.546875" y="560.222656" xlink:href="#d"/>
  <use x="70.585938" y="560.222656" xlink:href="#o"/>
  <use x="70.601562" y="560.222656" xlink:href="#a"/>
  <use x="70.640625" y="560.222656" xlink:href="#n"/>
  <use x="70.675781" y="560.222656" xlink:href="#e"/>
 </g>
</svg>
